<?xml version="1.0" standalone="no"?>
<!DOCTYPE svg PUBLIC "-//W3C//DTD SVG 20010904//EN"
 "http://www.w3.org/TR/2001/REC-SVG-20010904/DTD/svg10.dtd">
<svg version="1.0" xmlns="http://www.w3.org/2000/svg"
 width="1658.000000pt" height="1658.000000pt" viewBox="0 0 1658.000000 1658.000000"
 preserveAspectRatio="xMidYMid meet">
<metadata>
Created by potrace 1.14, written by Peter Selinger 2001-2017
</metadata>
<g transform="translate(0.000000,1658.000000) scale(0.100000,-0.100000)"
fill="#000000" stroke="none">
<path d="M1416 11196 c-3 -12 -21 -97 -41 -191 -20 -93 -54 -254 -76 -356 -22
-102 -41 -195 -43 -205 -3 -10 -14 -66 -26 -124 -12 -58 -24 -114 -26 -124
-12 -62 -56 -265 -61 -286 -4 -14 -7 -27 -8 -30 -1 -5 -14 -71 -21 -105 -2
-11 -6 -31 -9 -45 -4 -14 -8 -36 -11 -50 -2 -14 -16 -78 -30 -144 -14 -65 -28
-129 -30 -143 -3 -14 -11 -53 -19 -87 -8 -33 -16 -74 -19 -91 -3 -16 -24 -115
-46 -220 -23 -104 -45 -210 -50 -235 -5 -25 -12 -54 -14 -65 -3 -11 -14 -65
-26 -120 -32 -157 -48 -231 -76 -360 -14 -66 -28 -131 -30 -145 -3 -14 -9 -43
-14 -65 -5 -22 -10 -43 -10 -47 0 -3 539 -6 1198 -6 1258 -1 1269 0 1382 44
71 27 174 99 229 160 103 112 140 206 195 484 2 14 17 81 31 150 15 69 29 136
31 150 3 14 9 41 14 60 5 19 11 46 14 60 2 14 18 93 36 175 17 83 42 202 55
265 13 63 38 178 55 255 17 77 33 153 36 169 3 16 18 91 34 165 27 129 32 153
46 219 3 15 21 101 41 192 57 266 61 295 57 375 -8 151 -95 266 -241 318 -57
20 -76 21 -1290 22 l-1232 2 -5 -21z m1681 -413 c-3 -16 -10 -48 -15 -73 -6
-25 -13 -56 -16 -70 -2 -14 -14 -70 -26 -125 -12 -55 -24 -111 -26 -125 -3
-14 -11 -53 -19 -86 -15 -64 -23 -101 -31 -144 -2 -14 -7 -36 -10 -50 -3 -14
-8 -36 -11 -50 -2 -14 -18 -86 -34 -160 -16 -74 -32 -151 -35 -170 -3 -19 -8
-38 -10 -41 -2 -4 -6 -24 -10 -45 -3 -22 -10 -57 -16 -79 -5 -22 -11 -47 -13
-55 -3 -17 -17 -90 -20 -105 -2 -5 -12 -55 -24 -110 -11 -55 -32 -154 -47
-220 -14 -66 -28 -129 -30 -140 -7 -43 -15 -81 -20 -97 -3 -9 -7 -27 -9 -40
-3 -13 -9 -45 -15 -73 -6 -27 -12 -61 -15 -75 -9 -48 -46 -215 -55 -251 l-10
-36 -336 0 -335 0 4 31 c3 17 10 51 15 76 6 25 13 56 16 70 2 14 16 81 31 150
15 69 29 136 32 150 2 14 13 66 24 115 12 50 22 99 25 110 9 46 55 267 74 355
27 124 41 190 45 215 2 11 20 97 40 190 21 94 38 177 40 185 2 8 8 35 14 60 5
25 12 59 15 75 3 17 8 39 10 50 3 11 16 74 30 140 14 66 37 174 51 240 15 66
31 146 37 178 l12 57 338 0 339 0 -4 -27z"/>
<path d="M5085 11209 c-67 -13 -78 -16 -131 -36 -157 -60 -301 -216 -358 -387
-14 -40 -55 -222 -96 -426 -5 -25 -11 -54 -14 -65 -2 -11 -19 -87 -36 -170
-18 -82 -34 -159 -36 -170 -3 -11 -7 -31 -10 -45 -4 -24 -9 -51 -18 -95 -3
-11 -16 -73 -30 -137 -14 -64 -27 -127 -30 -140 -18 -89 -69 -332 -90 -428
-14 -63 -28 -130 -31 -149 -3 -19 -7 -37 -9 -40 -2 -3 -7 -24 -10 -46 -4 -22
-8 -47 -11 -55 -2 -8 -6 -28 -9 -44 -5 -25 -27 -131 -31 -146 -1 -3 -5 -23
-10 -45 -4 -22 -9 -49 -12 -60 -2 -11 -10 -49 -17 -85 -49 -251 68 -438 299
-478 22 -4 461 -7 975 -7 l935 0 12 49 c7 28 15 61 17 75 6 30 11 58 32 156 8
38 17 84 20 100 l4 30 -610 -1 -610 -1 5 26 c2 15 16 81 30 146 14 66 28 133
31 148 2 16 13 66 24 112 11 46 22 98 25 117 3 18 21 103 40 188 19 85 40 183
46 218 l13 62 476 0 476 0 28 138 c16 75 32 157 37 182 5 25 11 55 14 68 l5
22 -475 0 c-449 0 -476 1 -471 18 2 9 7 31 10 47 7 35 3 17 56 265 22 107 45
211 50 230 5 19 12 51 15 70 3 19 15 76 26 125 12 50 23 104 26 120 3 17 10
55 17 85 l13 55 613 5 613 5 14 65 c7 36 16 81 19 100 3 19 8 38 10 41 2 3 6
19 8 35 3 16 8 40 11 54 3 14 8 43 11 66 l6 41 -933 -1 c-514 0 -952 -3 -974
-7z"/>
<path d="M7701 11203 c-194 -40 -374 -196 -446 -387 -19 -51 -73 -279 -99
-416 -2 -14 -9 -45 -15 -70 -5 -25 -12 -59 -15 -77 -4 -17 -17 -82 -30 -145
-63 -291 -71 -349 -55 -434 19 -99 93 -200 179 -244 92 -47 122 -49 823 -50
364 0 662 -2 663 -3 1 -1 -6 -42 -17 -92 -20 -93 -75 -349 -89 -420 -5 -22
-20 -93 -34 -158 -14 -65 -28 -132 -31 -148 -6 -34 -34 -157 -41 -180 -4 -15
-40 -16 -339 -16 -239 0 -335 3 -335 11 0 9 47 241 93 459 8 37 12 68 8 68 -3
1 -248 2 -544 3 -470 1 -538 -1 -541 -14 -4 -13 -51 -239 -62 -295 -2 -11 -11
-55 -20 -98 -48 -239 3 -400 156 -489 94 -55 101 -56 1157 -56 1016 0 1044 1
1153 44 128 49 265 175 326 299 30 61 72 201 87 290 4 23 72 347 102 490 3 11
14 65 25 120 11 55 22 111 25 125 3 14 6 59 6 100 1 181 -100 309 -277 354
-53 14 -155 16 -729 16 l-667 0 7 33 c10 50 54 252 76 352 11 50 22 104 25
120 7 42 62 297 78 370 8 33 17 79 21 103 l7 42 339 0 c245 0 339 -3 339 -11
0 -7 -11 -62 -24 -123 -14 -61 -27 -124 -30 -141 -4 -16 -8 -39 -11 -50 -12
-53 -44 -201 -45 -207 0 -5 245 -8 545 -8 l545 0 4 23 c3 12 9 45 15 72 6 28
22 104 35 170 48 228 53 259 50 333 -7 163 -92 275 -252 329 -42 14 -165 16
-1062 18 -812 1 -1028 -1 -1079 -12z"/>
<path d="M10529 11201 c-1 -9 -1 -18 -1 -21 0 -3 3 -52 7 -110 4 -58 8 -134
10 -170 11 -193 17 -292 21 -350 2 -36 6 -110 9 -165 2 -55 7 -129 10 -165 3
-36 7 -110 10 -165 3 -55 8 -136 11 -180 2 -44 6 -114 9 -155 2 -41 7 -120 10
-175 4 -55 8 -127 10 -160 9 -177 16 -297 20 -355 3 -36 7 -103 10 -150 3 -47
7 -123 10 -170 3 -47 7 -128 10 -180 3 -52 8 -120 10 -150 2 -30 7 -116 11
-190 3 -74 8 -148 9 -165 2 -16 4 -40 4 -52 l1 -22 543 1 544 0 26 57 c14 31
74 155 132 276 59 121 129 265 155 320 54 113 154 321 273 565 111 231 220
456 282 585 29 61 87 181 129 268 152 313 229 474 281 582 29 61 94 196 145
300 50 105 103 215 117 245 15 30 28 58 29 61 2 3 -97 6 -220 6 l-224 0 -85
-176 c-47 -97 -129 -266 -182 -376 -54 -110 -119 -245 -145 -300 -26 -55 -89
-185 -140 -290 -85 -175 -134 -276 -305 -630 -35 -71 -107 -220 -160 -330 -53
-110 -111 -229 -127 -263 -16 -35 -31 -62 -33 -60 -2 2 -6 57 -9 123 -4 66 -9
147 -11 180 -4 54 -9 140 -20 370 -2 44 -7 123 -10 175 -17 288 -26 463 -40
710 -8 147 -13 238 -20 365 -7 116 -9 153 -20 360 -4 71 -8 132 -10 136 -2 3
-247 6 -545 6 -488 0 -540 -1 -541 -16z"/>
<path d="M14148 11215 c-2 -2 -21 -5 -43 -8 -168 -24 -349 -161 -434 -328 -38
-76 -78 -221 -115 -419 -2 -14 -9 -45 -15 -70 -5 -25 -12 -56 -15 -70 -2 -14
-11 -57 -20 -95 -8 -39 -17 -82 -19 -95 -3 -14 -21 -99 -40 -190 -20 -91 -38
-176 -40 -190 -3 -14 -19 -89 -36 -168 -26 -115 -108 -510 -125 -597 -3 -11
-16 -76 -31 -145 -15 -69 -29 -136 -32 -150 -2 -14 -9 -45 -14 -70 -6 -25 -13
-56 -15 -69 -3 -13 -11 -52 -18 -85 -55 -264 46 -447 277 -501 48 -11 239 -13
1061 -11 550 1 1010 5 1021 8 11 3 40 11 65 18 99 27 219 105 287 187 98 118
127 192 183 463 25 122 23 111 45 215 10 44 19 89 20 100 2 11 15 73 29 138
14 65 28 128 30 140 2 12 9 42 15 67 5 25 12 56 15 70 21 108 27 138 35 169 6
20 12 50 14 66 3 17 19 95 37 175 17 80 33 156 36 170 3 14 7 32 9 40 2 8 7
31 10 50 3 19 11 55 16 80 11 47 97 456 105 500 3 14 9 44 15 68 18 82 22 117
21 177 -3 176 -107 303 -287 353 -19 5 -2042 12 -2047 7z m1248 -422 c-5 -18
-23 -107 -32 -159 -3 -16 -9 -45 -14 -64 -9 -34 -138 -641 -147 -690 -2 -14
-9 -45 -14 -70 -25 -109 -61 -277 -65 -305 -2 -16 -6 -36 -9 -44 -4 -11 -21
-88 -40 -181 -2 -8 -21 -100 -43 -205 -23 -104 -43 -203 -47 -220 -9 -47 -15
-74 -31 -150 -16 -74 -20 -92 -30 -140 -3 -16 -14 -69 -25 -116 l-20 -86 -337
1 c-218 1 -336 5 -335 11 1 11 43 211 48 235 3 13 52 242 60 280 4 20 110 519
176 830 62 289 89 417 95 450 3 14 10 45 15 70 14 61 18 80 25 115 3 17 15 77
28 135 13 58 34 153 46 213 l23 107 339 0 c318 0 339 -1 334 -17z"/>
<path d="M920 7439 c-177 -15 -323 -147 -358 -324 -5 -27 -20 -95 -31 -150
-12 -55 -24 -116 -27 -135 -3 -19 -8 -38 -10 -41 -2 -3 -6 -21 -9 -40 -3 -19
-17 -83 -30 -144 -13 -60 -65 -303 -115 -540 -50 -236 -100 -472 -111 -523
-10 -51 -22 -108 -24 -126 l-6 -33 335 0 c184 0 339 3 345 6 5 4 32 116 60
251 29 135 56 265 62 290 6 25 22 99 35 165 33 156 32 154 38 173 5 15 34 17
303 17 l298 0 17 80 c10 44 20 89 22 100 2 11 7 32 11 48 5 19 3 27 -6 28 -8
0 -143 1 -301 1 -319 1 -289 -6 -274 63 3 11 30 142 61 290 32 149 61 274 66
279 5 5 171 9 389 9 209 0 380 1 380 2 0 1 9 44 20 96 12 52 23 110 26 129 l5
35 -548 0 c-301 0 -582 -3 -623 -6z"/>
<path d="M2311 7438 c-13 -4 -21 -25 -29 -70 -11 -64 -57 -284 -92 -438 -10
-47 -21 -96 -24 -110 -4 -24 -63 -309 -70 -340 -2 -8 -14 -62 -26 -120 -12
-58 -40 -188 -62 -290 -22 -102 -42 -196 -44 -210 -2 -14 -7 -36 -10 -50 -3
-14 -8 -34 -10 -45 -2 -11 -21 -101 -42 -201 l-39 -181 345 1 345 1 18 85 c10
47 25 117 34 155 8 39 17 81 20 95 3 14 9 48 15 75 6 28 12 59 14 70 2 11 11
52 19 90 19 86 116 542 121 570 3 11 20 94 40 185 19 91 37 177 40 193 3 15 7
35 10 45 3 9 7 28 10 42 2 14 14 70 26 125 28 132 50 241 60 288 7 35 6 37
-19 38 -160 4 -636 2 -650 -3z"/>
<path d="M3243 7438 c-2 -5 -6 -16 -8 -27 -2 -10 -12 -61 -24 -112 -11 -52
-22 -105 -24 -119 -3 -14 -21 -99 -41 -190 -77 -360 -138 -646 -142 -670 -4
-21 -9 -44 -20 -95 -11 -48 -107 -506 -111 -525 -2 -14 -17 -86 -34 -159 -16
-74 -29 -140 -29 -146 0 -9 191 -12 729 -12 l728 0 23 106 c12 58 24 116 27
129 l5 22 -386 0 -386 0 4 23 c2 12 16 74 29 137 14 63 28 129 31 145 3 17 24
116 46 220 38 178 55 256 66 315 3 13 12 56 20 95 25 114 100 468 108 509 11
54 48 228 62 284 9 35 13 66 10 69 -9 9 -677 9 -683 1z"/>
<path d="M4958 7440 c-22 -6 -25 -15 -52 -155 -2 -11 -21 -96 -41 -190 -45
-211 -102 -481 -110 -517 -8 -42 -13 -67 -41 -195 -14 -65 -28 -131 -30 -148
-3 -16 -12 -55 -19 -85 -7 -30 -16 -68 -19 -85 -3 -16 -7 -40 -10 -51 -2 -12
-32 -154 -66 -315 -34 -162 -63 -299 -65 -305 -5 -16 242 -15 254 0 8 10 13
33 35 141 3 11 13 61 25 110 11 50 22 101 25 115 2 14 12 59 20 100 9 41 32
149 51 240 19 91 44 208 55 260 12 52 25 114 29 138 12 60 18 61 27 5 3 -26 8
-57 10 -68 2 -11 7 -40 10 -65 3 -25 9 -61 14 -80 5 -19 11 -55 14 -80 4 -25
8 -56 11 -70 20 -109 37 -212 41 -250 3 -25 7 -52 9 -60 3 -8 7 -33 10 -55 3
-22 8 -51 10 -65 3 -14 7 -41 10 -60 5 -30 12 -73 29 -172 2 -13 7 -39 11 -59
l7 -36 139 0 140 0 19 28 c11 15 20 29 20 32 0 4 181 319 200 347 6 8 13 22
17 30 4 8 33 59 65 113 32 54 58 101 58 103 0 2 11 21 24 42 13 20 35 56 48
78 130 231 224 392 227 389 1 -2 -7 -48 -18 -102 -12 -54 -23 -107 -25 -118
-2 -11 -43 -202 -90 -425 -48 -222 -88 -413 -90 -425 -2 -11 -7 -36 -11 -56
l-7 -36 341 0 c303 0 341 2 345 16 4 13 50 227 71 326 2 11 13 64 24 119 12
54 23 108 25 120 8 39 88 414 92 431 2 6 6 24 9 40 6 34 35 171 65 308 11 50
23 106 26 122 2 17 7 36 10 44 2 8 7 28 10 45 2 17 26 132 53 256 26 124 47
227 45 229 -4 5 -643 5 -648 0 -3 -4 -63 -107 -96 -164 -22 -40 -188 -326
-318 -550 -58 -99 -115 -198 -127 -220 -54 -96 -105 -180 -106 -175 -11 61
-57 328 -63 370 -3 19 -19 116 -36 215 -17 99 -33 198 -36 220 -3 22 -7 47
-10 55 -3 8 -8 37 -11 65 -3 27 -7 53 -9 57 -3 4 -7 31 -10 60 -3 29 -9 57
-14 62 -9 9 -564 15 -602 6z"/>
<path d="M7298 7440 c-24 -6 -31 -27 -62 -191 l-12 -66 373 0 c205 0 376 -2
379 -6 4 -3 -31 -59 -77 -123 -46 -65 -91 -128 -99 -140 -22 -34 -447 -631
-490 -689 -20 -27 -83 -117 -141 -198 -57 -81 -136 -192 -175 -245 -38 -53
-77 -110 -86 -127 -14 -24 -52 -186 -61 -255 -2 -13 85 -15 725 -16 l726 -1
11 43 c6 23 13 59 17 79 3 21 8 47 11 59 3 11 7 33 10 48 l5 28 -381 2 -382 3
234 330 c130 182 250 352 269 378 18 27 38 54 43 60 6 7 71 98 144 202 74 105
150 213 171 240 20 28 80 111 133 186 102 143 109 161 142 348 3 19 8 38 11
43 3 4 -1 8 -8 9 -74 4 -1413 3 -1430 -1z"/>
<path d="M9370 7444 c0 -2 -19 -96 -24 -119 -63 -295 -116 -546 -120 -565 -2
-14 -28 -133 -56 -265 -29 -132 -54 -251 -56 -265 -3 -14 -7 -33 -10 -42 -3
-10 -7 -29 -10 -43 -9 -51 -13 -75 -59 -285 -25 -118 -50 -235 -55 -260 -11
-51 -14 -67 -29 -130 -22 -96 -55 -87 314 -87 368 0 335 -8 354 87 6 30 22
109 36 175 15 66 40 183 56 260 16 77 32 149 34 160 3 11 9 43 15 70 5 28 17
84 25 125 9 41 19 84 21 95 2 11 6 29 8 40 17 75 36 165 40 185 2 14 9 45 15
70 5 25 12 56 15 70 7 38 105 500 130 618 21 91 21 102 7 103 -28 1 -651 4
-651 3z"/>
<path d="M10830 7440 c-7 -4 -12 -21 -24 -85 -3 -11 -14 -65 -26 -120 -12 -55
-24 -111 -27 -125 -2 -14 -29 -140 -59 -280 -30 -140 -56 -264 -58 -275 -3
-11 -27 -126 -55 -256 -27 -129 -52 -246 -55 -260 -7 -37 -73 -347 -106 -499
-17 -75 -30 -140 -30 -146 0 -7 107 -11 330 -11 306 0 330 1 335 18 6 18 7 24
30 134 8 39 16 79 19 90 8 36 36 167 61 285 25 119 74 354 80 380 7 32 37 176
41 195 2 11 8 40 13 65 22 96 80 366 85 390 4 21 34 167 51 244 2 11 7 35 10
51 3 17 15 69 26 117 10 48 19 89 19 90 0 5 -652 3 -660 -2z"/>
<path d="M12280 7435 c-4 -5 -11 -26 -15 -45 -3 -19 -20 -96 -36 -170 -16 -74
-70 -328 -120 -565 -50 -236 -93 -439 -95 -450 -3 -11 -7 -31 -10 -45 -5 -30
-15 -77 -48 -230 -14 -63 -27 -126 -30 -140 -7 -33 -9 -46 -50 -234 -19 -88
-33 -163 -31 -166 3 -4 152 -7 332 -6 l327 1 28 120 c15 66 29 135 32 152 3
18 10 52 15 75 6 24 12 54 14 68 3 14 29 133 57 265 58 269 58 269 65 310 3
17 8 37 10 45 2 8 6 26 9 40 2 14 16 77 30 140 14 63 27 126 30 140 2 14 17
81 31 150 15 69 29 136 31 149 3 14 21 97 40 185 19 89 37 175 40 191 l4 30
-326 0 c-205 0 -329 -4 -334 -10z"/>
<path d="M13749 7440 c-19 -5 -25 -17 -35 -70 -7 -36 -24 -119 -39 -185 -14
-66 -28 -131 -31 -145 -3 -14 -43 -203 -89 -420 -46 -217 -86 -406 -89 -420
-3 -14 -7 -34 -10 -45 -2 -11 -15 -74 -29 -140 -14 -66 -40 -185 -57 -265 -40
-182 -37 -171 -44 -211 -3 -19 -12 -60 -20 -91 -7 -32 -13 -59 -12 -60 2 -3
666 -5 666 -1 0 2 9 45 20 96 10 50 22 103 24 117 3 14 7 35 10 48 4 12 8 32
11 45 12 57 16 73 19 92 7 36 66 318 81 385 47 213 67 308 71 330 6 32 46 221
91 430 19 91 37 176 40 190 2 14 17 86 34 159 16 74 29 142 29 150 0 14 -36
16 -309 16 -171 0 -320 -2 -332 -5z"/>
<path d="M15197 7442 c-15 -3 -19 -16 -41 -127 -3 -11 -16 -73 -30 -137 -14
-64 -27 -127 -30 -140 -2 -13 -9 -43 -15 -68 -5 -25 -13 -61 -16 -80 -3 -19
-8 -42 -10 -50 -2 -8 -6 -26 -9 -40 -2 -14 -18 -88 -34 -165 -17 -77 -58 -270
-91 -430 -34 -159 -65 -308 -71 -330 -5 -22 -19 -85 -30 -140 -11 -55 -25
-118 -30 -140 -5 -22 -11 -53 -14 -70 -3 -16 -8 -41 -11 -55 -3 -14 -8 -39
-12 -56 l-5 -31 331 0 c361 0 333 -4 345 57 2 14 19 90 36 170 34 159 68 321
74 354 2 11 11 53 20 91 23 104 74 346 80 375 2 14 11 54 19 90 8 36 18 83 21
105 4 22 9 48 12 57 3 9 6 25 8 35 16 80 109 516 117 545 5 20 12 56 15 80 4
24 10 53 15 66 7 17 5 24 -7 29 -15 6 -607 11 -637 5z"/>
</g>
</svg>
